<?xml version="1.0" standalone="no"?>
<!DOCTYPE svg PUBLIC "-//W3C//DTD SVG 20010904//EN"
 "http://www.w3.org/TR/2001/REC-SVG-20010904/DTD/svg10.dtd">
<svg version="1.0" xmlns="http://www.w3.org/2000/svg"
 width="1920.000000pt" height="1920.000000pt" viewBox="0 0 1920.000000 1920.000000"
 preserveAspectRatio="xMidYMid meet">
<metadata>
Created by potrace 1.14, written by Peter Selinger 2001-2017
</metadata>
<g transform="translate(0.000000,1920.000000) scale(0.100000,-0.100000)"
fill="#000000" stroke="none">
<path d="M8550 14362 c0 -2 103 -170 228 -375 126 -205 358 -583 516 -842 159
-258 299 -486 311 -505 13 -19 103 -165 200 -325 205 -335 459 -748 521 -850
24 -38 47 -75 52 -80 5 -6 11 -16 13 -21 2 -6 121 -200 264 -432 143 -232 265
-430 270 -439 11 -21 259 -425 284 -463 9 -14 20 -33 26 -42 9 -15 92 -150
152 -247 35 -56 47 -76 64 -107 l17 -29 -175 -280 c-97 -154 -322 -514 -501
-800 -179 -286 -340 -542 -357 -570 -18 -27 -133 -212 -257 -410 -540 -864
-1002 -1603 -1022 -1635 -98 -153 -171 -270 -184 -292 -7 -13 -75 -122 -151
-243 -77 -121 -181 -286 -231 -368 -50 -81 -95 -145 -98 -143 -4 2 -7 538 -7
1190 l1 1186 -1594 0 c-876 0 -1592 4 -1590 8 2 4 50 72 108 151 58 78 119
162 135 185 66 93 289 401 295 406 3 3 39 52 80 110 41 58 102 142 135 186 33
45 92 126 130 179 39 53 93 127 120 165 28 37 57 78 65 90 8 12 36 50 61 84
25 33 123 169 219 301 95 132 183 250 194 263 20 22 21 35 22 220 l1 196 -42
55 c-23 31 -169 232 -325 446 -156 215 -361 496 -455 625 -94 129 -263 361
-375 515 -112 154 -238 326 -279 383 -42 56 -77 107 -79 112 -2 7 544 10 1521
10 l1525 0 0 1200 0 1200 -22 1 c-25 0 -6851 0 -6883 -1 l-23 0 0 -740 c0
-805 -4 -749 52 -815 9 -11 124 -160 255 -331 131 -171 249 -326 263 -344 14
-18 89 -116 168 -219 78 -102 194 -253 257 -336 63 -82 187 -244 276 -360 88
-115 166 -217 172 -225 13 -16 439 -571 736 -960 94 -124 178 -232 185 -241
70 -84 127 -170 120 -181 -4 -7 -38 -51 -74 -98 -36 -47 -131 -170 -210 -275
-80 -104 -150 -197 -157 -205 -6 -8 -62 -80 -122 -160 -61 -80 -114 -149 -118
-155 -5 -5 -60 -77 -123 -160 -62 -82 -148 -195 -190 -250 -62 -81 -251 -328
-373 -489 -12 -15 -143 -186 -290 -380 -148 -193 -278 -364 -290 -380 -12 -16
-33 -43 -47 -61 -14 -18 -36 -47 -50 -65 -14 -19 -45 -60 -70 -92 -25 -32 -60
-77 -77 -100 -18 -24 -91 -119 -163 -213 l-130 -170 2 -740 3 -740 5098 0
5099 0 51 85 c29 47 57 93 62 103 6 10 112 187 238 395 399 661 720 1196 755
1257 16 28 119 200 230 384 111 184 203 339 205 345 4 12 37 -10 37 -25 0 -5
19 -39 43 -76 24 -38 55 -88 69 -113 14 -25 71 -121 128 -215 57 -93 111 -183
120 -200 10 -16 229 -381 487 -810 258 -429 475 -789 481 -800 7 -11 54 -90
105 -175 l94 -155 1575 0 c1052 0 1574 3 1571 10 -4 5 -33 53 -65 105 -33 52
-65 104 -71 115 -7 11 -21 34 -33 50 -11 17 -23 35 -25 40 -2 6 -78 129 -169
273 -91 144 -169 270 -175 280 -5 9 -192 309 -415 665 -223 356 -412 659 -421
675 -9 15 -360 576 -779 1247 -842 1347 -797 1275 -806 1293 -3 6 12 42 35 78
23 36 41 69 41 75 0 5 4 9 9 9 5 0 11 8 14 18 3 9 40 71 81 137 42 66 79 127
84 135 4 9 28 49 53 90 26 41 91 147 144 235 54 88 119 195 146 237 27 42 49
79 49 82 0 4 65 111 126 206 29 46 512 836 534 875 9 17 66 109 125 205 60 96
114 186 122 200 8 14 48 81 91 150 42 69 149 244 237 388 88 144 206 338 262
430 165 269 330 540 395 647 33 55 84 138 113 185 171 277 225 368 225 376 0
5 -632 9 -1547 9 l-1548 0 -161 -270 c-371 -622 -478 -802 -494 -830 -9 -16
-47 -79 -83 -139 -37 -59 -67 -110 -67 -111 0 -2 -58 -100 -130 -220 -71 -119
-130 -219 -130 -221 0 -3 -9 -17 -19 -32 -10 -15 -112 -184 -226 -377 -114
-192 -211 -354 -215 -358 -7 -8 -80 105 -80 124 0 5 -4 9 -9 9 -5 0 -11 8 -15
18 -3 9 -14 31 -23 47 -10 17 -65 109 -123 205 -57 96 -111 187 -120 202 -8
14 -71 121 -140 237 -69 116 -129 219 -135 228 -33 59 -161 274 -180 303 -12
19 -71 118 -130 220 -60 102 -135 230 -168 285 -33 55 -68 114 -77 130 -32 57
-242 410 -285 480 l-44 70 -1555 0 c-856 0 -1556 -1 -1556 -3z"/>
</g>
</svg>
